# SSTK version 0.8.0
# 27
mtllib original-27.mtl
o RB_21_TC1/RB_21_TC/mesh17/mesh17-geometry#mesh17-geometry
v -0.544048 -0.058459 0.311824
v -0.541072 -0.468455 0.308921
v -0.541072 -0.058459 0.308921
v -0.544048 -0.468455 0.311824
v -0.539769 -0.058459 0.307123
v -0.545916 -0.058459 0.312791
v -0.539769 -0.468455 0.307123
v -0.545916 -0.468455 0.312791
v -0.538799 -0.058459 0.305187
v -0.547923 -0.058459 0.313343
v -0.538799 -0.468455 0.305187
v -0.547923 -0.468455 0.313343
v -0.538794 -0.058459 0.297659
v -0.547925 -0.468455 0.316261
v -0.538794 -0.468455 0.297659
v -0.547925 -0.058459 0.316261
v -0.513798 -0.468455 0.298357
v -0.628832 -0.468455 0.316261
v -0.513798 -0.058459 0.298357
v -0.628832 -0.058459 0.316261
v -0.501491 -0.058459 0.303484
v -0.629385 -0.058459 0.316191
v -0.501491 -0.468455 0.303484
v -0.629385 -0.468455 0.316191
v -0.484884 -0.468455 0.306124
v -0.629661 -0.058459 0.316053
v -0.484884 -0.058459 0.306124
v -0.629661 -0.468455 0.316053
v -0.482948 -0.468455 0.306817
v -0.630007 -0.468455 0.315706
v -0.482948 -0.058459 0.306817
v -0.630007 -0.058459 0.315706
v -0.482119 -0.468455 0.307371
v -0.630145 -0.468455 0.315499
v -0.482119 -0.058459 0.307371
v -0.630145 -0.058459 0.315499
v -0.481427 -0.058459 0.308063
v -0.630352 -0.468455 0.315015
v -0.481427 -0.468455 0.308063
v -0.630352 -0.058459 0.315015
v -0.480806 -0.058459 0.308963
v -0.630350 -0.468455 0.311833
v -0.480806 -0.468455 0.308963
v -0.630350 -0.058459 0.311833
v -0.479977 -0.058459 0.310831
v -0.632771 -0.058459 0.311347
v -0.479977 -0.468455 0.310831
v -0.632771 -0.468455 0.311347
v -0.479979 -0.058459 0.313943
v -0.634983 -0.058459 0.310446
v -0.479979 -0.468455 0.313943
v -0.634983 -0.468455 0.310446
v -0.479219 -0.058459 0.315465
v -0.636988 -0.058459 0.309131
v -0.479219 -0.468455 0.315465
v -0.636988 -0.468455 0.309131
v -0.478735 -0.468455 0.315811
v -0.640167 -0.468455 0.305532
v -0.478735 -0.058459 0.315811
v -0.640167 -0.058459 0.305532
v -0.477698 -0.468455 0.316296
v -0.641962 -0.468455 0.300966
v -0.477698 -0.058459 0.316296
v -0.641962 -0.058459 0.300966
v -0.472107 -0.468455 0.316296
v -0.641951 -0.468455 0.284574
v -0.472107 -0.058459 0.316296
v -0.641951 -0.058459 0.284574
v -0.641743 -0.468455 0.283744
v -0.641743 -0.058459 0.283744
v -0.641396 -0.468455 0.282983
v -0.641396 -0.058459 0.282983
v -0.640151 -0.468455 0.281809
v -0.640151 -0.058459 0.281809
v -0.639390 -0.468455 0.281394
v -0.639390 -0.058459 0.281394
v -0.638490 -0.058459 0.281118
v -0.638490 -0.468455 0.281118
v -0.538782 -0.058459 0.281118
v -0.538782 -0.468455 0.281118
v -0.538786 -0.468455 0.286859
v -0.538786 -0.058459 0.286859
v -0.472107 -0.058459 0.286859
v -0.472107 -0.468455 0.286859
vt 0.786642 -0.393576
vt 0.787965 -0.582384
vt 0.787965 -0.393576
vt 0.786642 -0.582384
vt 0.788545 -0.393576
vt 0.785811 -0.393576
vt 0.788545 -0.582384
vt 0.785811 -0.582384
vt 0.788976 -0.393576
vt 0.784919 -0.393576
vt 0.788976 -0.582384
vt 0.784919 -0.582384
vt 0.788978 -0.393576
vt 0.784918 -0.582384
vt 0.788978 -0.582384
vt 0.784918 -0.393576
vt 0.506185 0.435229
vt 0.694993 0.446343
vt 0.506185 0.446343
vt 0.748944 -0.582384
vt 0.694993 0.435229
vt 0.748944 -0.393576
vt 0.694993 0.429757
vt 0.748698 -0.393576
vt 0.506185 0.429757
vt 0.748698 -0.582384
vt 0.506185 0.422372
vt 0.748575 -0.393576
vt 0.694993 0.422372
vt 0.748575 -0.582384
vt 0.506185 0.421512
vt 0.748422 -0.582384
vt 0.694993 0.421512
vt 0.748422 -0.393576
vt 0.506185 0.421143
vt 0.74836 -0.582384
vt 0.694993 0.421143
vt 0.74836 -0.393576
vt 0.694993 0.420835
vt 0.748268 -0.582384
vt 0.506185 0.420835
vt 0.748268 -0.393576
vt 0.694993 0.420559
vt 0.748269 -0.582384
vt 0.506185 0.420559
vt 0.748269 -0.393576
vt 0.694993 0.42019
vt 0.747193 -0.393576
vt 0.506185 0.42019
vt 0.747193 -0.582384
vt 0.694993 0.420191
vt 0.746209 -0.393576
vt 0.506185 0.420191
vt 0.746209 -0.582384
vt 0.694993 0.419854
vt 0.745318 -0.393576
vt 0.506185 0.419854
vt 0.745318 -0.582384
vt 0.506185 0.419638
vt 0.743904 -0.582384
vt 0.694993 0.419638
vt 0.743904 -0.393576
vt 0.506185 0.419177
vt 0.743106 -0.582384
vt 0.694993 0.419177
vt 0.743106 -0.393576
vt 0.506185 0.416691
vt 0.743111 -0.582384
vt 0.694993 0.416691
vt 0.743111 -0.393576
vt 0.743204 -0.582384
vt 0.743204 -0.393576
vt 0.743358 -0.582384
vt 0.743358 -0.393576
vt 0.743912 -0.582384
vt 0.743912 -0.393576
vt 0.74425 -0.582384
vt 0.74425 -0.393576
vt 0.74465 -0.393576
vt 0.74465 -0.582384
vt 0.788983 -0.393576
vt 0.788983 -0.582384
vt 0.788985 -0.376542
vt 0.788983 -0.564269
vt 0.788985 -0.564269
vt 0.788983 -0.376542
vt 0.506185 0.44634
vt 0.694993 0.44634
vn 0.585342665277358 0 0.8107860162866641
vn 0.7566092154585787 0 0.6538673375258576
vn 0.8546458074151035 0 0.519211463536569
vn 0.36447519754890717 0 0.9312130961126379
vn 0.9730897192358288 0 0.2304265573182397
vn 0.26526170563128404 0 0.964176450410184
vn 0.9999997591854586 0 0.000693994974875656
vn 0.9999997500790928 0 0.0007069948743069332
vn -0.20973837047379654 0 0.9777575445635777
vn -0.027921199004757355 0 0.999610127322716
vn 0 0 1
vn -0.062484433547266814 0 0.9980459386041693
vn -0.2726688899464598 0 0.9621079338906657
vn -0.29044979968126233 0 0.9568902308337747
vn -0.24806366762392287 0 0.9687437312338945
vn -0.5852758388618962 0 0.810834257073851
vn -0.44950344167519074 0 0.8932785992746933
vn -0.7737841657523477 0 0.6334493388037779
vn -0.6345278192218506 0 0.772900023698772
vn -0.8796118460300687 0 0.47569212766617747
vn -0.7681980732128242 0 0.6402122462996974
vn -0.9797173003209798 0 0.20038465872359412
vn -0.8721642024603294 0 0.4892132499705392
vn -0.9999997591854586 0 -0.000693994974875656
vn -0.9783596246484578 0 0.2069116837148853
vn -0.28818889121433167 0 0.9575735809746707
vn -0.19679741251721988 0 0.9804441740489497
vn -0.9734084234929372 0 0.2290764961164603
vn -0.4650043986594734 0 0.8853083695681079
vn -0.7607034650034933 0 0.6490995596452666
vn -0.6548407532778253 0 0.7557668872387371
vn -0.5047869318033171 0 0.8632439710073817
vn -0.8530137594043985 0 0.5218884231967356
vn -0.4235162633992453 0 0.905888500112647
vn -0.9825774134850921 0 0.18585377722539373
vn -0.9924226387838584 0 -0.12287109517410287
vn -0.9439179770801156 0 -0.33018003050605915
vn -0.8133059198755962 0 -0.5818363005994989
vn -0.5870426588343665 0 -0.8095559997360762
vn -0.38778931089873364 0 -0.9217480406014897
vn -0.14835408468398636 0 -0.9889343080091701
vn 0 0 -1
vn -0.7566092154585787 0 -0.6538673375258576
vn -0.585342665277358 0 -0.8107860162866641
vn -0.8546458074151035 0 -0.519211463536569
vn -0.36447519754890717 0 -0.9312130961126379
vn -0.9730897192358288 0 -0.2304265573182397
vn -0.26526170563128404 0 -0.964176450410184
vn -0.9999997500790928 0 -0.0007069948743069332
vn 0.027921199004757355 0 -0.999610127322716
vn 0.20973837047379654 0 -0.9777575445635777
vn 0.062484433547266814 0 -0.9980459386041693
vn 0.2726688899464598 0 -0.9621079338906657
vn 0.29044979968126233 0 -0.9568902308337747
vn 0.24806366762392287 0 -0.9687437312338945
vn 0.5852758388618962 0 -0.810834257073851
vn 0.44950344167519074 0 -0.8932785992746933
vn 0.7737841657523477 0 -0.6334493388037779
vn 0.6345278192218506 0 -0.772900023698772
vn 0.8796118460300687 0 -0.47569212766617747
vn 0.7681980732128242 0 -0.6402122462996974
vn 0.9797173003209798 0 -0.20038465872359412
vn 0.8721642024603294 0 -0.4892132499705392
vn 0.9783596246484578 0 -0.2069116837148853
vn 0.19679741251721988 0 -0.9804441740489497
vn 0.28818889121433167 0 -0.9575735809746707
vn 0.9734084234929372 0 -0.2290764961164603
vn 0.4650043986594734 0 -0.8853083695681079
vn 0.7607034650034933 0 -0.6490995596452666
vn 0.6548407532778253 0 -0.7557668872387371
vn 0.5047869318033171 0 -0.8632439710073817
vn 0.8530137594043985 0 -0.5218884231967356
vn 0.4235162633992453 0 -0.905888500112647
vn 0.9825774134850921 0 -0.18585377722539373
vn 0.9924226387838584 0 0.12287109517410287
vn 0.9439179770801156 0 0.33018003050605915
vn 0.8133059198755962 0 0.5818363005994989
vn 0.5870426588343665 0 0.8095559997360762
vn 0.38778931089873364 0 0.9217480406014897
vn 0.14835408468398636 0 0.9889343080091701
usemtl material_0_0
f 1/1/1 2/2/2 3/3/2
f 2/2/2 1/1/1 4/4/1
f 2/2/2 5/5/3 3/3/2
f 6/6/4 4/4/1 1/1/1
f 5/5/3 2/2/2 7/7/3
f 4/4/1 6/6/4 8/8/4
f 7/7/3 9/9/5 5/5/3
f 10/10/6 8/8/4 6/6/4
f 9/9/5 7/7/3 11/11/5
f 8/8/4 10/10/6 12/12/6
f 11/11/5 13/13/7 9/9/5
f 10/10/8 14/14/8 12/12/8
f 13/13/7 11/11/5 15/15/7
f 14/14/8 10/10/8 16/16/8
f 17/17/9 13/18/10 15/19/10
f 16/16/11 18/20/12 14/14/11
f 13/18/10 17/17/9 19/21/9
f 18/20/12 16/16/11 20/22/12
f 17/17/9 21/23/13 19/21/9
f 22/24/14 18/20/12 20/22/12
f 21/23/13 17/17/9 23/25/13
f 18/20/12 22/24/14 24/26/14
f 25/27/15 21/23/13 23/25/13
f 26/28/16 24/26/14 22/24/14
f 21/23/13 25/27/15 27/29/15
f 24/26/14 26/28/16 28/30/16
f 29/31/17 27/29/15 25/27/15
f 26/28/16 30/32/18 28/30/16
f 27/29/15 29/31/17 31/33/17
f 30/32/18 26/28/16 32/34/18
f 33/35/19 31/33/17 29/31/17
f 32/34/18 34/36/20 30/32/18
f 31/33/17 33/35/19 35/37/19
f 34/36/20 32/34/18 36/38/20
f 33/35/19 37/39/21 35/37/19
f 36/38/20 38/40/22 34/36/20
f 37/39/21 33/35/19 39/41/21
f 38/40/22 36/38/20 40/42/22
f 39/41/21 41/43/23 37/39/21
f 40/42/22 42/44/24 38/40/22
f 41/43/23 39/41/21 43/45/23
f 42/44/24 40/42/22 44/46/24
f 43/45/23 45/47/25 41/43/23
f 46/48/26 42/44/27 44/46/27
f 45/47/25 43/45/23 47/49/25
f 42/44/27 46/48/26 48/50/26
f 47/49/25 49/51/28 45/47/25
f 50/52/29 48/50/26 46/48/26
f 49/51/28 47/49/25 51/53/28
f 48/50/26 50/52/29 52/54/29
f 51/53/28 53/55/30 49/51/28
f 54/56/31 52/54/29 50/52/29
f 53/55/30 51/53/28 55/57/30
f 52/54/29 54/56/31 56/58/31
f 57/59/32 53/55/30 55/57/30
f 54/56/31 58/60/33 56/58/31
f 53/55/30 57/59/32 59/61/32
f 58/60/33 54/56/31 60/62/33
f 61/63/34 59/61/32 57/59/32
f 60/62/33 62/64/35 58/60/33
f 59/61/32 61/63/34 63/65/34
f 62/64/35 60/62/33 64/66/35
f 65/67/11 63/65/11 61/63/11
f 64/66/35 66/68/36 62/64/35
f 63/65/11 65/67/11 67/69/11
f 66/68/36 64/66/35 68/70/36
f 68/70/36 69/71/37 66/68/36
f 69/71/37 68/70/36 70/72/37
f 70/72/37 71/73/38 69/71/37
f 71/73/38 70/72/37 72/74/38
f 72/74/38 73/75/39 71/73/38
f 73/75/39 72/74/38 74/76/39
f 74/76/39 75/77/40 73/75/39
f 75/77/40 74/76/39 76/78/40
f 77/79/41 75/77/40 76/78/40
f 75/77/40 77/79/41 78/80/41
f 79/81/42 78/80/41 77/79/41
f 78/80/41 79/81/42 80/82/42
f 79/83/7 81/84/7 80/85/7
f 81/84/7 79/83/7 82/86/7
f 83/69/42 81/87/42 82/88/42
f 81/87/42 83/69/42 84/67/42
usemtl material_1_0
f 3//43 2//43 1//44
f 4//44 1//44 2//43
f 3//43 5//45 2//43
f 1//44 4//44 6//46
f 7//45 2//43 5//45
f 8//46 6//46 4//44
f 5//45 9//47 7//45
f 6//46 8//46 10//48
f 11//47 7//45 9//47
f 12//48 10//48 8//46
f 9//47 13//24 11//47
f 12//49 14//49 10//49
f 15//24 11//47 13//24
f 16//49 10//49 14//49
f 15//50 13//50 17//51
f 14//42 18//52 16//42
f 19//51 17//51 13//50
f 20//52 16//42 18//52
f 19//51 21//53 17//51
f 20//52 18//52 22//54
f 23//53 17//51 21//53
f 24//54 22//54 18//52
f 23//53 21//53 25//55
f 22//54 24//54 26//56
f 27//55 25//55 21//53
f 28//56 26//56 24//54
f 25//55 27//55 29//57
f 28//56 30//58 26//56
f 31//57 29//57 27//55
f 32//58 26//56 30//58
f 29//57 31//57 33//59
f 30//58 34//60 32//58
f 35//59 33//59 31//57
f 36//60 32//58 34//60
f 35//59 37//61 33//59
f 34//60 38//62 36//60
f 39//61 33//59 37//61
f 40//62 36//60 38//62
f 37//61 41//63 39//61
f 38//62 42//7 40//62
f 43//63 39//61 41//63
f 44//7 40//62 42//7
f 41//63 45//64 43//63
f 44//65 42//65 46//66
f 47//64 43//63 45//64
f 48//66 46//66 42//65
f 45//64 49//67 47//64
f 46//66 48//66 50//68
f 51//67 47//64 49//67
f 52//68 50//68 48//66
f 49//67 53//69 51//67
f 50//68 52//68 54//70
f 55//69 51//67 53//69
f 56//70 54//70 52//68
f 55//69 53//69 57//71
f 56//70 58//72 54//70
f 59//71 57//71 53//69
f 60//72 54//70 58//72
f 57//71 59//71 61//73
f 58//72 62//74 60//72
f 63//73 61//73 59//71
f 64//74 60//72 62//74
f 61//42 63//42 65//42
f 62//74 66//75 64//74
f 67//42 65//42 63//42
f 68//75 64//74 66//75
f 66//75 69//76 68//75
f 70//76 68//75 69//76
f 69//76 71//77 70//76
f 72//77 70//76 71//77
f 71//77 73//78 72//77
f 74//78 72//77 73//78
f 73//78 75//79 74//78
f 76//79 74//78 75//79
f 76//79 75//79 77//80
f 78//80 77//80 75//79
f 77//80 78//80 79//11
f 80//11 79//11 78//80
f 80//24 81//24 79//24
f 82//24 79//24 81//24
f 82//11 81//11 83//11
f 84//11 83//11 81//11
